<svg version="1.1" viewBox="0 0 768 768" xmlns="http://www.w3.org/2000/svg">
 <path d="m384 309.21c49.023 0 88.729-39.817 88.729-88.729 0-49.023-39.706-88.729-88.729-88.729-49.023 0-88.729 39.706-88.729 88.729 0 48.912 39.706 88.729 88.729 88.729zm0 44.365c-59.116 0-177.46 29.613-177.46 88.729v44.365h354.92v-44.365c0-59.116-118.34-88.729-177.46-88.729z" style="fill:#ffffff;stroke-width:.71304"/>
 <path d="m356.46 413.23-11.406 190.98 38.943 32.034 38.943-32.034-11.406-190.98z" style="fill:#11437d"/>
 <path d="m384 353.16c-8.4288 0-17.708.45792-27.537 1.2769v44.526h55.074v-44.526c-9.8289-.81901-19.108-1.2769-27.537-1.2769z" style="fill:#11437d;stroke-width:1.7766"/>
 <path d="m279.13 353.17c-8.4288 0-17.708.45792-27.537 1.2769v44.526h55.074v-44.526c-9.8289-.819-19.108-1.2769-27.537-1.2769z" style="fill:#c41230;stroke-width:1.7766"/>
 <path d="m251.59 413.22-11.406 190.98 38.943 32.034 38.943-32.034-11.406-190.98z" style="fill:#c41230"/>
 <path d="m488.87 353.17c8.4288 0 17.708.45792 27.537 1.2769v44.526h-55.074v-44.526c9.8289-.819 19.108-1.2769 27.537-1.2769z" style="fill:#fdbb30;stroke-width:1.7766"/>
 <path d="m516.41 413.22 11.406 190.98-38.943 32.034-38.943-32.034 11.406-190.98z" style="fill:#fdbb30"/>
</svg>
