<svg version="1.1" viewBox="0 0 24 24" xmlns="http://www.w3.org/2000/svg">
 <path d="m12 9.0351c1.9435 0 3.5176-1.5785 3.5176-3.5176 0-1.9435-1.5741-3.5176-3.5176-3.5176s-3.5176 1.5741-3.5176 3.5176c0 1.9391 1.5741 3.5176 3.5176 3.5176zm0 1.7588c-2.3436 0-7.0352 1.174-7.0352 3.5176v1.7588h14.07v-1.7588c0-2.3436-4.6915-3.5176-7.0352-3.5176z" style="fill:currentColor"/>
 <path d="m10.908 13.159-.45218 7.5712 1.5439 1.27 1.5439-1.27-.45218-7.5712z" style="fill:#c41230;"/>
 <path d="m12 10.777c-.33415 0-.70202.01815-1.0917.05062v1.7652h2.1834v-1.7652c-.38966-.03247-.75752-.05062-1.0917-.05062z" style="fill:#c41230;"/>
 <path d="m7.8426 10.778c-.33415 0-.70202.01815-1.0917.05062v1.7652h2.1834v-1.7652c-.38966-.032469-.75752-.050622-1.0917-.050622z" style="fill:#11437d;"/>
 <path d="m6.7508 13.158-.45218 7.5712 1.5439 1.27 1.5439-1.27-.45218-7.5712z" style="fill:#11437d;"/>
 <path d="m16.158 10.778c.33415 0 .70202.01815 1.0917.05062v1.7652h-2.1834v-1.7652c.38966-.03247.75752-.05062 1.0917-.05062z" style="fill:#fdbb30;"/>
 <path d="m17.249 13.158.45218 7.5712-1.5439 1.27-1.5439-1.27.45218-7.5712z" style="fill:#fdbb30;"/>
</svg>
