<svg style="fill:white" version="1.1" viewBox="0 0 24 24" width="24" height="24" xmlns="http://www.w3.org/2000/svg">
 <ellipse cx="12" cy="22.002" rx="5.1453" ry="1.0309" style="fill-opacity:.2;fill:#000000;"/>
 <path d="m12 19.329c2.0275-1.8613 3.5315-3.5522 4.512-5.0728s1.4707-2.8709 1.4707-4.0508c0-1.8114-.5775-3.2946-1.7325-4.4496s-2.5717-1.7325-4.2502-1.7325-3.0952.5775-4.2502 1.7325-1.7325 2.6382-1.7325 4.4496c0 1.1799.49025 2.5302 1.4707 4.0508.9805 1.5206 2.4845 3.2115 4.512 5.0728z"/>
 <path d="m12 11.996q.82262 0 1.4084-.58581.58581-.58581.58581-1.4084 0-.82262-.58581-1.4084-.58581-.58581-1.4084-.58581t-1.4084.58581q-.58581.58581-.58581 1.4084 0 .82262.58581 1.4084.58581.58581 1.4084.58581zm0 7.3288q3.0412-2.7919 4.512-5.0728 1.4707-2.2809 1.4707-4.0508 0-2.7171-1.7325-4.4496t-4.2502-1.7325-4.2502 1.7325-1.7325 4.4496q0 1.7699 1.4707 4.0508t4.512 5.0728zm0 2.6424q-4.0134-3.4151-5.9952-6.3442-1.9818-2.929-1.9818-5.4218 0-3.7392 2.4055-5.9578t5.5714-2.2186q3.1658 0 5.5714 2.2186 2.4055 2.2186 2.4055 5.9578 0 2.4928-1.9818 5.4218t-5.9952 6.3442z" style="fill:black"/>
</svg>
